# xmcd CD database file
#
# Track frame offsets:
#	150
#	12041
#	31448
#	45735
#	58897
#	76150
#	88603
#	105033
#	125951
#	143334
#	157993
#	175462
#	185846
#
# Disc length: 2785 seconds
#
# Revision: 1
# Processed by: cddbd v1.5.1PL0 Copyright (c) Steve Scherf et al.
# Submitted via: CDex 1.50Beta7
#
DISCID=a20adf0d
DTITLE=Wolfgang Bernreuther - I'm waiting for you
DYEAR=2004
DGENRE=Blues
TTITLE0=Time For A Change
TTITLE1=I'm Waiting For You
TTITLE2=Indian Blues
TTITLE3=Mississippi, Mississippi
TTITLE4=I Hope I'll Play The Blues On The Day That I Die
TTITLE5=Wild, Wild West
TTITLE6=Till The Rivers All Run Dry
TTITLE7=Help Me
TTITLE8=Blues With A Feeling
TTITLE9=I Loved Another Woman
TTITLE10=Everyday I Have The Blues
TTITLE11=Thank You God
TTITLE12=Bring Me Flowes While I'm Living
EXTD=YEAR: 2004
EXTT0=
EXTT1=
EXTT2=
EXTT3=
EXTT4=
EXTT5=
EXTT6=
EXTT7=
EXTT8=
EXTT9=
EXTT10=
EXTT11=
EXTT12=
PLAYORDER=
